<svg width="36" height="50" viewBox="0 0 36 50" fill="none" xmlns="http://www.w3.org/2000/svg">
<path d="M26.0798 37.3619V45.0766L29.6921 46.6149V35.3403C28.5574 36.1365 27.3472 36.8139 26.0798 37.3619ZM6.56822 35.3403V46.538L10.1806 44.9996V37.3619C8.91317 36.8139 7.70294 36.1366 6.56822 35.3403ZM18.1301 39.0031C16.4243 39.0041 14.7251 38.7869 13.072 38.3566V50L18.1301 47.846L23.1883 49.9999V38.3566C21.5351 38.7869 19.8359 39.0041 18.1301 39.0031ZM18.1301 0C8.41797 0 0.516541 8.08475 0.516541 18.0223C0.516541 27.9599 8.41797 36.0446 18.1301 36.0446C27.8423 36.0446 35.7438 27.9598 35.7438 18.0222C35.7438 8.08465 27.8424 0 18.1301 0ZM18.1301 32.2363C10.4306 32.2363 4.16643 25.8268 4.16643 17.9486C4.16643 10.0703 10.4306 3.66083 18.1301 3.66083C25.8297 3.66083 32.0938 10.0703 32.0938 17.9486C32.0938 25.8269 25.8298 32.2363 18.1301 32.2363ZM18.1301 6.61932C12.0249 6.61932 7.05783 11.7015 7.05783 17.9486C7.05783 24.1957 12.0249 29.2777 18.1301 29.2777C24.2354 29.2777 29.2024 24.1955 29.2024 17.9485C29.2024 11.7015 24.2354 6.61932 18.1301 6.61932ZM22.6809 24.5605L18.1301 22.1126L13.5795 24.5605L14.4486 19.3757L10.767 15.7039L15.8549 14.9473L18.1301 10.23L20.4055 14.9473L25.4934 15.7039L21.8118 19.3757L22.6809 24.5605Z" fill="white"/>
</svg>
