<svg width="56" height="46" viewBox="0 0 56 46" fill="none" xmlns="http://www.w3.org/2000/svg">
<path d="M27.8698 0L0.504913 12.3393L27.8698 28.7913L40.9034 20.9554L28.6764 16.4605C28.4247 16.6056 28.1491 16.6814 27.8698 16.6821C27.3726 16.6821 26.8956 16.4446 26.544 16.0218C26.1924 15.599 25.9948 15.0255 25.9948 14.4276C25.9948 13.8296 26.1924 13.2562 26.544 12.8334C26.8956 12.4106 27.3726 12.173 27.8698 12.173L27.5598 13.3851L29.7321 14.1887C29.7324 14.1914 29.7327 14.194 29.733 14.1966L32.9385 15.3753L51.1901 22.1275V23.839C50.9377 24.0455 50.731 24.323 50.5881 24.6474C50.4451 24.9718 50.3702 25.3332 50.3698 25.7004C50.3702 26.0759 50.4485 26.4454 50.5978 26.7753C50.747 27.1052 50.9625 27.385 51.2245 27.5894C50.371 31.4679 50.3698 40.2677 50.3698 43.7365C52.2448 45.2012 52.2448 45.2547 54.1198 43.7365C54.1198 40.2681 54.1189 31.47 53.2655 27.5906C53.5277 27.3861 53.7431 27.106 53.8923 26.7759C54.0415 26.4457 54.1197 26.076 54.1198 25.7002C54.1198 25.3327 54.045 24.9707 53.9021 24.6459C53.7591 24.3211 53.5522 24.0432 53.2995 23.8364V20.2545L46.3475 17.6826L55.2348 12.3393L27.8698 0ZM11.8882 22.4593L10.3503 33.5544C13.4177 34.0368 17.0869 36.1805 20.4601 38.7155C22.3784 40.1572 24.1753 41.7398 25.6346 43.2753C26.5266 44.2137 27.2725 45.1141 27.8698 46C28.4671 45.114 29.213 44.2137 30.1051 43.2753C31.5644 41.7398 33.3611 40.1572 35.2796 38.7155C38.6527 36.1805 42.322 34.0368 45.3894 33.5544L43.8513 22.4593H43.1189L27.8698 31.6272L12.6206 22.4593H11.8882Z" fill="white"/>
</svg>
